STARTFONT 2.1
FONT -bited-layman-Regular-R-Normal--16-150-75-75-P-63-ISO10646-1
SIZE 15 75 75
FONTBOUNDINGBOX 9 11 0 -2
STARTPROPERTIES 24
FOUNDRY "bited"
FAMILY_NAME "layman"
WEIGHT_NAME "Regular"
SLANT "R"
SETWIDTH_NAME "Normal"
ADD_STYLE_NAME ""
PIXEL_SIZE 16
POINT_SIZE 150
RESOLUTION_X 75
RESOLUTION_Y 75
SPACING "P"
AVERAGE_WIDTH 63
CHARSET_REGISTRY "ISO10646"
CHARSET_ENCODING "1"
FONT_ASCENT 12
FONT_DESCENT 4
CAP_HEIGHT 8
X_HEIGHT 5
BITED_DWIDTH 7
BITED_WIDTHS "77 H4sIAAAAAAAACmNggAEAdmiK4woAAAA="
BITED_TABLE_WIDTH -16
BITED_TABLE_CELL_SCALE 2
BITED_EDITOR_GRID_SIZE 32
BITED_EDITOR_CELL_SIZE 12
ENDPROPERTIES
CHARS 77
STARTCHAR U+0020
ENCODING 32
SWIDTH 426 0
DWIDTH 4 0
BBX 0 0 0 0
BITMAP
ENDCHAR
STARTCHAR U+0021
ENCODING 33
SWIDTH 426 0
DWIDTH 4 0
BBX 1 8 2 0
BITMAP
80
80
80
80
80
00
80
80
ENDCHAR
STARTCHAR U+0022
ENCODING 34
SWIDTH 640 0
DWIDTH 6 0
BBX 3 3 2 5
BITMAP
A0
A0
A0
ENDCHAR
STARTCHAR U+0027
ENCODING 39
SWIDTH 426 0
DWIDTH 4 0
BBX 1 3 2 5
BITMAP
80
80
80
ENDCHAR
STARTCHAR U+0028
ENCODING 40
SWIDTH 426 0
DWIDTH 4 0
BBX 3 11 1 -2
BITMAP
20
40
40
80
80
80
80
80
40
40
20
ENDCHAR
STARTCHAR U+0029
ENCODING 41
SWIDTH 426 0
DWIDTH 4 0
BBX 3 11 1 -2
BITMAP
80
40
40
20
20
20
20
20
40
40
80
ENDCHAR
STARTCHAR U+002C
ENCODING 44
SWIDTH 533 0
DWIDTH 5 0
BBX 2 4 2 -2
BITMAP
C0
C0
40
80
ENDCHAR
STARTCHAR U+002D
ENCODING 45
SWIDTH 533 0
DWIDTH 5 0
BBX 4 1 1 3
BITMAP
F0
ENDCHAR
STARTCHAR U+002E
ENCODING 46
SWIDTH 533 0
DWIDTH 5 0
BBX 2 2 2 0
BITMAP
C0
C0
ENDCHAR
STARTCHAR U+002F
ENCODING 47
SWIDTH 640 0
DWIDTH 6 0
BBX 5 10 1 -2
BITMAP
08
08
10
10
20
20
40
40
80
80
ENDCHAR
STARTCHAR U+003A
ENCODING 58
SWIDTH 533 0
DWIDTH 5 0
BBX 2 6 2 0
BITMAP
C0
C0
00
00
C0
C0
ENDCHAR
STARTCHAR U+003B
ENCODING 59
SWIDTH 533 0
DWIDTH 5 0
BBX 2 8 2 -2
BITMAP
C0
C0
00
00
C0
C0
40
80
ENDCHAR
STARTCHAR U+003C
ENCODING 60
SWIDTH 533 0
DWIDTH 5 0
BBX 4 7 1 0
BITMAP
10
20
40
80
40
20
10
ENDCHAR
STARTCHAR U+003D
ENCODING 61
SWIDTH 640 0
DWIDTH 6 0
BBX 5 4 1 1
BITMAP
F8
00
00
F8
ENDCHAR
STARTCHAR U+003E
ENCODING 62
SWIDTH 533 0
DWIDTH 5 0
BBX 4 7 1 0
BITMAP
80
40
20
10
20
40
80
ENDCHAR
STARTCHAR U+003F
ENCODING 63
SWIDTH 533 0
DWIDTH 5 0
BBX 4 8 1 0
BITMAP
E0
90
10
20
40
00
40
40
ENDCHAR
STARTCHAR U+0041
ENCODING 65
SWIDTH 853 0
DWIDTH 8 0
BBX 7 8 1 0
BITMAP
10
10
28
28
38
44
44
EE
ENDCHAR
STARTCHAR U+0042
ENCODING 66
SWIDTH 746 0
DWIDTH 7 0
BBX 6 8 1 0
BITMAP
F8
44
44
78
44
44
44
F8
ENDCHAR
STARTCHAR U+0043
ENCODING 67
SWIDTH 746 0
DWIDTH 7 0
BBX 6 8 1 0
BITMAP
34
4C
84
80
80
84
4C
34
ENDCHAR
STARTCHAR U+0044
ENCODING 68
SWIDTH 746 0
DWIDTH 7 0
BBX 6 8 1 0
BITMAP
F0
48
44
44
44
44
48
F0
ENDCHAR
STARTCHAR U+0045
ENCODING 69
SWIDTH 746 0
DWIDTH 7 0
BBX 6 8 1 0
BITMAP
FC
44
40
70
40
40
44
FC
ENDCHAR
STARTCHAR U+0046
ENCODING 70
SWIDTH 746 0
DWIDTH 7 0
BBX 6 8 1 0
BITMAP
FC
44
40
70
40
40
40
E0
ENDCHAR
STARTCHAR U+0047
ENCODING 71
SWIDTH 746 0
DWIDTH 7 0
BBX 6 8 1 0
BITMAP
34
4C
84
80
8C
84
44
3C
ENDCHAR
STARTCHAR U+0048
ENCODING 72
SWIDTH 853 0
DWIDTH 8 0
BBX 7 8 1 0
BITMAP
EE
44
44
7C
44
44
44
EE
ENDCHAR
STARTCHAR U+0049
ENCODING 73
SWIDTH 426 0
DWIDTH 4 0
BBX 3 8 1 0
BITMAP
E0
40
40
40
40
40
40
E0
ENDCHAR
STARTCHAR U+004A
ENCODING 74
SWIDTH 746 0
DWIDTH 7 0
BBX 6 9 1 -1
BITMAP
1C
08
08
08
08
08
08
88
70
ENDCHAR
STARTCHAR U+004B
ENCODING 75
SWIDTH 853 0
DWIDTH 8 0
BBX 7 8 1 0
BITMAP
EE
44
48
50
60
50
48
E6
ENDCHAR
STARTCHAR U+004C
ENCODING 76
SWIDTH 746 0
DWIDTH 7 0
BBX 6 8 1 0
BITMAP
E0
40
40
40
40
40
44
FC
ENDCHAR
STARTCHAR U+004D
ENCODING 77
SWIDTH 1066 0
DWIDTH 10 0
BBX 9 8 1 0
BITMAP
C180
4100
6300
6300
5500
5500
4900
C980
ENDCHAR
STARTCHAR U+004E
ENCODING 78
SWIDTH 853 0
DWIDTH 8 0
BBX 7 8 1 0
BITMAP
CE
64
64
54
54
4C
4C
E4
ENDCHAR
STARTCHAR U+004F
ENCODING 79
SWIDTH 853 0
DWIDTH 8 0
BBX 7 8 1 0
BITMAP
38
44
82
82
82
82
44
38
ENDCHAR
STARTCHAR U+0050
ENCODING 80
SWIDTH 746 0
DWIDTH 7 0
BBX 6 8 1 0
BITMAP
F8
44
44
78
40
40
40
E0
ENDCHAR
STARTCHAR U+0051
ENCODING 81
SWIDTH 746 0
DWIDTH 7 0
BBX 6 10 1 -2
BITMAP
30
48
84
84
84
84
48
30
60
18
ENDCHAR
STARTCHAR U+0052
ENCODING 82
SWIDTH 746 0
DWIDTH 7 0
BBX 6 8 1 0
BITMAP
F8
44
44
78
50
48
48
E4
ENDCHAR
STARTCHAR U+0053
ENCODING 83
SWIDTH 746 0
DWIDTH 7 0
BBX 6 8 1 0
BITMAP
74
8C
84
60
18
84
C4
B8
ENDCHAR
STARTCHAR U+0054
ENCODING 84
SWIDTH 640 0
DWIDTH 6 0
BBX 5 8 1 0
BITMAP
F8
A8
20
20
20
20
20
70
ENDCHAR
STARTCHAR U+0055
ENCODING 85
SWIDTH 853 0
DWIDTH 8 0
BBX 7 8 1 0
BITMAP
EE
44
44
44
44
44
44
38
ENDCHAR
STARTCHAR U+0056
ENCODING 86
SWIDTH 853 0
DWIDTH 8 0
BBX 7 8 1 0
BITMAP
EE
44
44
28
28
28
10
10
ENDCHAR
STARTCHAR U+0057
ENCODING 87
SWIDTH 1066 0
DWIDTH 10 0
BBX 9 8 1 0
BITMAP
E380
4100
4900
4900
5500
5500
2200
2200
ENDCHAR
STARTCHAR U+0058
ENCODING 88
SWIDTH 853 0
DWIDTH 8 0
BBX 7 8 1 0
BITMAP
EE
44
28
10
10
28
44
EE
ENDCHAR
STARTCHAR U+0059
ENCODING 89
SWIDTH 853 0
DWIDTH 8 0
BBX 7 8 1 0
BITMAP
EE
44
28
28
10
10
10
38
ENDCHAR
STARTCHAR U+005A
ENCODING 90
SWIDTH 746 0
DWIDTH 7 0
BBX 6 8 1 0
BITMAP
FC
88
10
10
20
20
44
FC
ENDCHAR
STARTCHAR U+005B
ENCODING 91
SWIDTH 426 0
DWIDTH 4 0
BBX 3 11 1 -2
BITMAP
E0
80
80
80
80
80
80
80
80
80
E0
ENDCHAR
STARTCHAR U+005C
ENCODING 92
SWIDTH 640 0
DWIDTH 6 0
BBX 5 10 1 -2
BITMAP
80
80
40
40
20
20
10
10
08
08
ENDCHAR
STARTCHAR U+005D
ENCODING 93
SWIDTH 426 0
DWIDTH 4 0
BBX 3 11 1 -2
BITMAP
E0
20
20
20
20
20
20
20
20
20
E0
ENDCHAR
STARTCHAR U+005E
ENCODING 94
SWIDTH 640 0
DWIDTH 6 0
BBX 5 3 1 5
BITMAP
20
50
88
ENDCHAR
STARTCHAR U+005F
ENCODING 95
SWIDTH 640 0
DWIDTH 6 0
BBX 5 1 1 -1
BITMAP
F8
ENDCHAR
STARTCHAR U+0060
ENCODING 96
SWIDTH 426 0
DWIDTH 4 0
BBX 3 3 1 5
BITMAP
80
40
20
ENDCHAR
STARTCHAR U+0061
ENCODING 97
SWIDTH 746 0
DWIDTH 7 0
BBX 6 5 1 0
BITMAP
70
08
78
88
74
ENDCHAR
STARTCHAR U+0062
ENCODING 98
SWIDTH 746 0
DWIDTH 7 0
BBX 6 8 1 0
BITMAP
C0
40
40
58
64
44
44
78
ENDCHAR
STARTCHAR U+0063
ENCODING 99
SWIDTH 640 0
DWIDTH 6 0
BBX 5 5 1 0
BITMAP
68
98
80
88
70
ENDCHAR
STARTCHAR U+0064
ENCODING 100
SWIDTH 746 0
DWIDTH 7 0
BBX 6 8 1 0
BITMAP
18
08
08
78
88
88
88
74
ENDCHAR
STARTCHAR U+0065
ENCODING 101
SWIDTH 640 0
DWIDTH 6 0
BBX 5 5 1 0
BITMAP
70
88
F8
80
70
ENDCHAR
STARTCHAR U+0066
ENCODING 102
SWIDTH 533 0
DWIDTH 5 0
BBX 4 8 1 0
BITMAP
30
40
40
F0
40
40
40
E0
ENDCHAR
STARTCHAR U+0067
ENCODING 103
SWIDTH 640 0
DWIDTH 6 0
BBX 5 8 1 -2
BITMAP
08
70
88
88
70
80
70
08
ENDCHAR
STARTCHAR U+0068
ENCODING 104
SWIDTH 853 0
DWIDTH 8 0
BBX 7 8 1 0
BITMAP
C0
40
40
58
64
44
44
EE
ENDCHAR
STARTCHAR U+0069
ENCODING 105
SWIDTH 426 0
DWIDTH 4 0
BBX 3 7 1 0
BITMAP
40
00
C0
40
40
40
E0
ENDCHAR
STARTCHAR U+006A
ENCODING 106
SWIDTH 426 0
DWIDTH 4 0
BBX 2 9 1 -2
BITMAP
40
00
C0
40
40
40
40
40
80
ENDCHAR
STARTCHAR U+006B
ENCODING 107
SWIDTH 746 0
DWIDTH 7 0
BBX 6 8 1 0
BITMAP
C0
40
40
5C
48
70
48
EC
ENDCHAR
STARTCHAR U+006C
ENCODING 108
SWIDTH 426 0
DWIDTH 4 0
BBX 3 8 1 0
BITMAP
C0
40
40
40
40
40
40
E0
ENDCHAR
STARTCHAR U+006D
ENCODING 109
SWIDTH 1066 0
DWIDTH 10 0
BBX 9 5 1 0
BITMAP
D200
6D00
4900
4900
ED80
ENDCHAR
STARTCHAR U+006E
ENCODING 110
SWIDTH 853 0
DWIDTH 8 0
BBX 7 5 1 0
BITMAP
D8
64
44
44
EE
ENDCHAR
STARTCHAR U+006F
ENCODING 111
SWIDTH 640 0
DWIDTH 6 0
BBX 5 5 1 0
BITMAP
70
88
88
88
70
ENDCHAR
STARTCHAR U+0070
ENCODING 112
SWIDTH 746 0
DWIDTH 7 0
BBX 6 7 1 -2
BITMAP
D8
64
44
44
78
40
E0
ENDCHAR
STARTCHAR U+0071
ENCODING 113
SWIDTH 640 0
DWIDTH 6 0
BBX 6 7 1 -2
BITMAP
78
88
88
98
68
08
1C
ENDCHAR
STARTCHAR U+0072
ENCODING 114
SWIDTH 640 0
DWIDTH 6 0
BBX 5 5 1 0
BITMAP
D8
60
40
40
E0
ENDCHAR
STARTCHAR U+0073
ENCODING 115
SWIDTH 640 0
DWIDTH 6 0
BBX 5 5 1 0
BITMAP
70
80
70
08
70
ENDCHAR
STARTCHAR U+0074
ENCODING 116
SWIDTH 533 0
DWIDTH 5 0
BBX 4 7 1 0
BITMAP
40
40
F0
40
40
40
30
ENDCHAR
STARTCHAR U+0075
ENCODING 117
SWIDTH 853 0
DWIDTH 8 0
BBX 7 5 1 0
BITMAP
CC
44
44
4C
36
ENDCHAR
STARTCHAR U+0076
ENCODING 118
SWIDTH 746 0
DWIDTH 7 0
BBX 6 5 1 0
BITMAP
DC
48
50
20
20
ENDCHAR
STARTCHAR U+0077
ENCODING 119
SWIDTH 1066 0
DWIDTH 10 0
BBX 9 5 1 0
BITMAP
DB80
4900
5A00
2400
2400
ENDCHAR
STARTCHAR U+0078
ENCODING 120
SWIDTH 746 0
DWIDTH 7 0
BBX 6 5 1 0
BITMAP
EC
48
30
48
DC
ENDCHAR
STARTCHAR U+0079
ENCODING 121
SWIDTH 853 0
DWIDTH 8 0
BBX 7 7 1 -2
BITMAP
EE
44
28
28
10
10
38
ENDCHAR
STARTCHAR U+007A
ENCODING 122
SWIDTH 640 0
DWIDTH 6 0
BBX 5 5 1 0
BITMAP
F8
90
20
48
F8
ENDCHAR
STARTCHAR U+007B
ENCODING 123
SWIDTH 426 0
DWIDTH 4 0
BBX 3 11 1 -2
BITMAP
20
40
40
40
40
80
40
40
40
40
20
ENDCHAR
STARTCHAR U+007C
ENCODING 124
SWIDTH 746 0
DWIDTH 7 0
BBX 1 11 3 -2
BITMAP
80
80
80
80
80
80
80
80
80
80
80
ENDCHAR
STARTCHAR U+007D
ENCODING 125
SWIDTH 426 0
DWIDTH 4 0
BBX 3 11 1 -2
BITMAP
80
40
40
40
40
20
40
40
40
40
80
ENDCHAR
ENDFONT
